External Loads File
version=1
nRows=54
nColumns=13
Range=5.000000e-03-10 seconds
endheader
time 	forceRightX 	forceRightY 	forceRightZ 	pointRightX 	pointRightY 	pointRightZ 	forceLeftX 	forceLeftY 	forceLeftZ 	pointLeftX 	pointLeftY 	pointLeftZ 		
7.505000 190.209439 402.329088 -0.000000 0.302724 0.143364 -0.104393 -37.897168 95.785071 -0.000000 0.288450 0.482700 -0.353684
7.510000 193.371677 357.207169 -0.000000 0.293006 0.142475 -0.104362 -33.572315 119.073871 -0.000000 0.296421 0.484217 -0.354119
7.515000 194.568131 312.831372 -0.000000 0.283335 0.142219 -0.103995 -28.903947 143.029466 -0.000000 0.304198 0.485607 -0.354485
7.520000 193.704568 269.092031 -0.000000 0.273808 0.142640 -0.104058 -24.600654 168.193744 -0.000000 0.311711 0.486268 -0.354971
7.525000 190.765702 225.663236 -0.000000 0.264501 0.143605 -0.104217 -21.362642 195.151552 -0.000000 0.318946 0.486144 -0.355492
7.530000 185.718276 182.266388 -0.000000 0.255502 0.145302 -0.104346 -19.947499 224.236268 -0.000000 0.325823 0.485302 -0.356088
7.535000 178.871216 138.448525 -0.000000 0.246676 0.147554 -0.104450 -20.685206 255.417446 -0.000000 0.332697 0.483521 -0.356833
7.540000 170.116707 94.442607 -0.000000 0.238238 0.150329 -0.104580 -24.322765 288.175463 -0.000000 0.339530 0.480962 -0.357554
7.545000 159.628310 50.480294 -0.000000 0.230095 0.153890 -0.104728 -31.032084 321.621967 -0.000000 0.346374 0.477408 -0.358267
7.550000 147.455098 7.317205 -0.000000 0.222224 0.157933 -0.104879 -41.023901 354.573602 -0.000000 0.353290 0.473106 -0.359071
7.555000 133.729222 -33.952726 -0.000000 0.214698 0.162581 -0.104920 -54.341314 385.729040 -0.000000 0.360198 0.468237 -0.359683
7.560000 118.642933 -72.145312 -0.000000 0.207389 0.167816 -0.105105 -70.449719 413.904453 -0.000000 0.367130 0.462810 -0.360290
7.565000 102.558473 -105.842681 -0.000000 0.200628 0.173545 -0.105199 -89.193673 438.109597 -0.000000 0.373972 0.456649 -0.360766
7.570000 85.894020 -133.945481 -0.000000 0.194215 0.179607 -0.105203 -109.685262 457.903144 -0.000000 0.380930 0.449941 -0.361044
7.575000 69.326257 -155.542939 -0.000000 0.188281 0.186083 -0.105336 -131.427265 473.244756 -0.000000 0.387856 0.442671 -0.361336
7.580000 53.479304 -170.229259 -0.000000 0.182692 0.193208 -0.105365 -153.377716 484.666841 -0.000000 0.394572 0.434816 -0.361461
7.585000 39.202601 -177.964960 -0.000000 0.177496 0.200679 -0.105393 -175.158615 492.858749 -0.000000 0.401152 0.426652 -0.361410
7.590000 27.079039 -179.234513 -0.000000 0.172710 0.208521 -0.105467 -195.961542 498.866787 -0.000000 0.407355 0.417961 -0.361412
7.595000 17.626070 -174.892540 -0.000000 0.168332 0.216652 -0.105514 -215.505223 503.679497 -0.000000 0.413046 0.408963 -0.361311
7.600000 10.692252 -166.129641 -0.000000 0.164347 0.225369 -0.105551 -232.437815 508.787621 -0.000000 0.418431 0.399545 -0.361245
7.605000 6.342976 -154.222527 -0.000000 0.160741 0.234423 -0.105634 -246.826940 515.047310 -0.000000 0.423312 0.389774 -0.361166
7.610000 4.196214 -140.433156 -0.000000 0.157588 0.243752 -0.105713 -258.197580 523.393140 -0.000000 0.427870 0.379579 -0.361001
7.615000 3.882279 -125.819985 -0.000000 0.154916 0.253497 -0.105809 -266.839619 534.125180 -0.000000 0.431692 0.369290 -0.361006
7.620000 4.763718 -111.184869 -0.000000 0.152789 0.263343 -0.105942 -272.490781 547.517925 -0.000000 0.434922 0.358635 -0.361021
7.625000 6.217855 -97.101387 -0.000000 0.151295 0.273508 -0.106124 -274.722418 563.709669 -0.000000 0.437612 0.347681 -0.361104
7.630000 7.938761 -83.988768 -0.000000 0.150320 0.283858 -0.106346 -274.126513 582.160345 -0.000000 0.439683 0.336705 -0.360920
7.635000 9.631787 -72.202185 -0.000000 0.149925 0.294285 -0.106529 -270.643865 602.475858 -0.000000 0.441041 0.325599 -0.361111
7.640000 11.050050 -62.081335 -0.000000 0.150018 0.305019 -0.106600 -263.639034 624.318760 -0.000000 0.441879 0.314412 -0.361177
7.645000 12.035852 -53.932475 -0.000000 0.150683 0.315912 -0.106854 -253.088552 646.876632 -0.000000 0.442111 0.303082 -0.361287
7.650000 12.408779 -47.955110 -0.000000 0.152002 0.326717 -0.107077 -239.727762 668.933486 -0.000000 0.441695 0.291823 -0.361439
7.655000 11.835075 -44.199736 -0.000000 0.153818 0.337732 -0.107297 -222.964066 689.745094 -0.000000 0.440639 0.280734 -0.361453
7.660000 10.111973 -42.514895 -0.000000 0.156324 0.348629 -0.107705 -203.378118 708.172351 -0.000000 0.438878 0.269834 -0.361335
7.665000 7.110151 -42.628985 -0.000000 0.159372 0.359389 -0.108033 -181.224997 723.352066 -0.000000 0.436451 0.259160 -0.361279
7.670000 2.755744 -44.210199 -0.000000 0.162889 0.370521 -0.108351 -155.676777 734.867979 -0.000000 0.433435 0.248682 -0.361014
7.675000 -2.659062 -46.908083 -0.000000 0.167193 0.380638 -0.108611 -130.223447 741.607895 -0.000000 0.429847 0.238517 -0.360830
7.680000 -9.061056 -50.442380 -0.000000 0.171716 0.390839 -0.109166 -103.326378 743.826747 -0.000000 0.425643 0.228622 -0.360680
7.685000 -16.164348 -54.541106 -0.000000 0.176863 0.400598 -0.109590 -76.273531 741.408307 -0.000000 0.420959 0.218961 -0.360557
7.690000 -23.743143 -58.905665 -0.000000 0.182634 0.410045 -0.109966 -49.515849 734.600786 -0.000000 0.415719 0.209763 -0.360485
7.695000 -31.624039 -63.177117 -0.000000 0.188796 0.419216 -0.110292 -23.442399 723.777019 -0.000000 0.409911 0.200939 -0.360422
7.700000 -39.706343 -66.914972 -0.000000 0.195694 0.427906 -0.110334 1.835630 709.371699 -0.000000 0.403643 0.192449 -0.360428
7.705000 -47.757292 -69.723575 -0.000000 0.202332 0.436236 -0.110954 24.673937 691.847740 -0.000000 0.396904 0.184403 -0.360491
7.710000 -55.899973 -70.945958 -0.000000 0.210194 0.444060 -0.110769 47.309181 671.508999 -0.000000 0.389685 0.176910 -0.360470
7.715000 -63.712523 -70.288938 -0.000000 0.217629 0.451392 -0.111525 67.168324 648.757555 -0.000000 0.381978 0.170063 -0.360393
7.720000 -71.141521 -67.218434 -0.000000 0.225486 0.458143 -0.111744 85.969230 623.740127 -0.000000 0.373830 0.163671 -0.360315
7.725000 -77.895903 -61.482620 -0.000000 0.233925 0.463963 -0.111700 103.723870 596.711770 -0.000000 0.365242 0.158013 -0.360212
7.730000 -83.688307 -52.968473 -0.000000 0.242685 0.469455 -0.111930 120.784825 567.958739 -0.000000 0.356274 0.152870 -0.360096
7.735000 -88.139326 -41.863410 -0.000000 0.251513 0.474218 -0.111986 136.432805 538.142314 -0.000000 0.346922 0.148443 -0.359958
7.740000 -91.014860 -28.277440 -0.000000 0.260594 0.478394 -0.111968 151.113511 507.834674 -0.000000 0.337215 0.144740 -0.359832
7.745000 -92.046942 -12.511477 -0.000000 0.269515 0.482054 -0.111876 164.347589 477.904783 -0.000000 0.327165 0.141522 -0.359703
7.750000 -91.090154 5.192798 -0.000000 0.278419 0.485146 -0.111813 176.055670 449.104655 -0.000000 0.316937 0.139100 -0.359530
7.755000 -88.176755 24.654027 -0.000000 0.287186 0.487668 -0.111702 186.073648 422.019203 -0.000000 0.306612 0.137309 -0.359402
7.760000 -83.601926 45.823541 -0.000000 0.295653 0.489562 -0.111637 194.023763 396.957022 -0.000000 0.296377 0.136122 -0.359219
7.765000 -77.839658 68.968606 -0.000000 0.303898 0.490972 -0.111598 199.964168 373.530923 -0.000000 0.286280 0.135500 -0.358976
7.770000 -71.451218 94.519662 -0.000000 0.311916 0.491547 -0.111540 203.909066 350.828328 -0.000000 0.276270 0.135575 -0.358752
